<svg width="107" height="107" viewBox="0 0 107 107" fill="none" xmlns="http://www.w3.org/2000/svg">
<rect width="107" height="107" fill="white"/>
<path d="M92 0H15C6.71573 0 0 6.71573 0 15V92C0 100.284 6.71573 107 15 107H92C100.284 107 107 100.284 107 92V15C107 6.71573 100.284 0 92 0Z" fill="#007AFF"/>
<path d="M28.2869 88V18.1818H56.2415C61.3778 18.1818 65.6619 18.9432 69.0938 20.4659C72.5256 21.9886 75.1051 24.1023 76.8324 26.8068C78.5597 29.4886 79.4233 32.5795 79.4233 36.0795C79.4233 38.8068 78.8778 41.2045 77.7869 43.2727C76.696 45.3182 75.196 47 73.2869 48.3182C71.4006 49.6136 69.2415 50.5341 66.8097 51.0795V51.7614C69.4688 51.875 71.9574 52.625 74.2756 54.0114C76.6165 55.3977 78.5142 57.3409 79.9688 59.8409C81.4233 62.3182 82.1506 65.2727 82.1506 68.7045C82.1506 72.4091 81.2301 75.7159 79.3892 78.625C77.571 81.5114 74.8778 83.7955 71.3097 85.4773C67.7415 87.1591 63.3438 88 58.1165 88H28.2869ZM43.0483 75.9318H55.0824C59.196 75.9318 62.196 75.1477 64.0824 73.5795C65.9688 71.9886 66.9119 69.875 66.9119 67.2386C66.9119 65.3068 66.446 63.6023 65.5142 62.125C64.5824 60.6477 63.2528 59.4886 61.5256 58.6477C59.821 57.8068 57.7869 57.3864 55.4233 57.3864H43.0483V75.9318ZM43.0483 47.3977H53.9915C56.0142 47.3977 57.8097 47.0455 59.3778 46.3409C60.9688 45.6136 62.2188 44.5909 63.1278 43.2727C64.0597 41.9545 64.5256 40.375 64.5256 38.5341C64.5256 36.0114 63.6278 33.9773 61.8324 32.4318C60.0597 30.8864 57.5369 30.1136 54.2642 30.1136H43.0483V47.3977Z" fill="white"/>
</svg>
